<svg xmlns="http://www.w3.org/2000/svg" xmlns:xlink="http://www.w3.org/1999/xlink" width="40" zoomAndPan="magnify" viewBox="0 0 30 30.000001" height="40" preserveAspectRatio="xMidYMid meet" version="1.0"><defs><clipPath id="db95955545"><path d="M 0.484375 7.253906 L 29.515625 7.253906 L 29.515625 29 L 0.484375 29 Z M 0.484375 7.253906 " clip-rule="nonzero"/></clipPath></defs><g clip-path="url(#db95955545)"><path fill="#007bff" d="M 21.578125 14.621094 C 21.34375 14.890625 21.160156 15.125 20.949219 15.335938 C 20.25 16.035156 19.574219 16.761719 18.824219 17.402344 C 18.015625 18.09375 16.851562 17.90625 16.109375 17.105469 C 15.921875 16.90625 15.59375 16.84375 15.300781 16.707031 C 15.171875 16.386719 15.472656 16.246094 15.660156 16.066406 C 17.351562 14.4375 18.664062 12.515625 19.804688 10.476562 C 20.238281 9.699219 20.53125 8.832031 20.863281 7.996094 C 21.121094 7.339844 21.152344 7.246094 21.859375 7.304688 C 23.121094 7.40625 24.222656 7.839844 25.015625 8.941406 C 26.398438 10.851562 27.890625 12.679688 28.929688 14.824219 C 29.097656 15.175781 29.222656 15.546875 29.453125 16.117188 C 28.417969 15.929688 27.566406 15.9375 27.019531 15.101562 C 26.683594 14.589844 26.34375 14.085938 25.882812 13.390625 C 25.761719 14.121094 25.691406 14.628906 25.601562 15.132812 C 24.925781 18.914062 23.421875 22.328125 20.605469 24.929688 C 18.042969 27.296875 15.03125 28.933594 11.421875 28.980469 C 8.390625 29.015625 5.785156 27.8125 3.511719 25.875 C 2.601562 25.097656 1.828125 24.148438 1.019531 23.253906 C 0.8125 23.023438 0.695312 22.707031 0.539062 22.429688 C 0.597656 22.367188 0.660156 22.308594 0.722656 22.25 C 1.09375 22.484375 1.480469 22.699219 1.832031 22.960938 C 2.050781 23.125 2.222656 23.359375 2.40625 23.570312 C 4.761719 26.273438 7.742188 26.996094 11.113281 26.261719 C 13.691406 25.699219 15.820312 24.289062 17.609375 22.363281 C 19.5 20.328125 20.785156 17.933594 21.550781 15.25 C 21.585938 15.132812 21.617188 15.007812 21.636719 14.886719 C 21.640625 14.832031 21.609375 14.773438 21.578125 14.621094 Z M 21.578125 14.621094 " fill-opacity="1" fill-rule="nonzero"/></g></svg>