<svg xmlns="http://www.w3.org/2000/svg" xmlns:xlink="http://www.w3.org/1999/xlink" width="40" zoomAndPan="magnify" viewBox="0 0 30 30.000001" height="40" preserveAspectRatio="xMidYMid meet" version="1.0"><defs><clipPath id="df1f927fa4"><path d="M 15 8 L 29.515625 8 L 29.515625 27.582031 L 15 27.582031 Z M 15 8 " clip-rule="nonzero"/></clipPath><clipPath id="38b94dfbba"><path d="M 0.484375 8 L 21 8 L 21 27.582031 L 0.484375 27.582031 Z M 0.484375 8 " clip-rule="nonzero"/></clipPath></defs><path fill="#fdfee9" d="M 5.429688 3.246094 C 5.429688 5.042969 6.882812 6.496094 8.675781 6.496094 C 10.46875 6.496094 11.925781 5.042969 11.925781 3.246094 C 11.925781 1.453125 10.46875 0 8.675781 0 C 6.882812 0 5.429688 1.453125 5.429688 3.246094 " fill-opacity="1" fill-rule="nonzero"/><path fill="#042698" d="M 18.292969 3.246094 C 18.292969 5.042969 19.746094 6.496094 21.542969 6.496094 C 23.335938 6.496094 24.789062 5.042969 24.789062 3.246094 C 24.789062 1.453125 23.335938 0 21.542969 0 C 19.746094 0 18.292969 1.453125 18.292969 3.246094 " fill-opacity="1" fill-rule="nonzero"/><g clip-path="url(#df1f927fa4)"><path fill="#042698" d="M 15 15.226562 L 19.136719 8.191406 L 23.238281 8.191406 L 29.511719 27.003906 C 26.832031 27.894531 23.9375 26.449219 23.042969 23.769531 L 20.460938 16.023438 C 17.265625 20.835938 15 15.226562 15 15.226562 " fill-opacity="1" fill-rule="nonzero"/></g><g clip-path="url(#38b94dfbba)"><path fill="#fdfee9" d="M 6.761719 8.191406 L 10.863281 8.191406 L 15 15.226562 C 15 15.226562 17.265625 20.835938 20.460938 16.023438 L 18.734375 18.960938 C 17.0625 21.8125 12.9375 21.8125 11.265625 18.960938 L 9.539062 16.023438 L 6.957031 23.769531 C 6.0625 26.449219 3.167969 27.894531 0.492188 27.003906 L 6.761719 8.191406 " fill-opacity="1" fill-rule="nonzero"/></g></svg>